<mxfile host="65bd71144e">
    <diagram id="vQG2rVUmP_15jDssrkWm" name="Page-1">
        <mxGraphModel dx="800" dy="312" grid="1" gridSize="10" guides="1" tooltips="1" connect="1" arrows="1" fold="1" page="1" pageScale="1" pageWidth="850" pageHeight="1100" math="0" shadow="0">
            <root>
                <mxCell id="0"/>
                <mxCell id="1" parent="0"/>
                <mxCell id="34" value="" style="rounded=0;whiteSpace=wrap;html=1;" parent="1" vertex="1">
                    <mxGeometry x="80" y="30" width="750" height="350" as="geometry"/>
                </mxCell>
                <mxCell id="26" style="edgeStyle=none;html=1;entryX=0;entryY=0.5;entryDx=0;entryDy=0;startArrow=ERone;startFill=0;endArrow=oval;endFill=0;" parent="1" source="19" target="24" edge="1">
                    <mxGeometry relative="1" as="geometry"/>
                </mxCell>
                <mxCell id="19" value="取引先" style="swimlane;fontStyle=0;childLayout=stackLayout;horizontal=1;startSize=26;fillColor=none;horizontalStack=0;resizeParent=1;resizeParentMax=0;resizeLast=0;collapsible=0;marginBottom=0;" parent="1" vertex="1">
                    <mxGeometry x="160" y="106" width="100" height="104" as="geometry">
                        <mxRectangle x="160" y="130" width="80" height="26" as="alternateBounds"/>
                    </mxGeometry>
                </mxCell>
                <mxCell id="20" value="社名" style="text;strokeColor=none;fillColor=none;align=left;verticalAlign=top;spacingLeft=4;spacingRight=4;overflow=hidden;rotatable=0;points=[[0,0.5],[1,0.5]];portConstraint=eastwest;" parent="19" vertex="1">
                    <mxGeometry y="26" width="100" height="26" as="geometry"/>
                </mxCell>
                <mxCell id="36" value="資本金" style="text;strokeColor=none;fillColor=none;align=left;verticalAlign=top;spacingLeft=4;spacingRight=4;overflow=hidden;rotatable=0;points=[[0,0.5],[1,0.5]];portConstraint=eastwest;" vertex="1" parent="19">
                    <mxGeometry y="52" width="100" height="26" as="geometry"/>
                </mxCell>
                <mxCell id="37" value="所在地" style="text;strokeColor=none;fillColor=none;align=left;verticalAlign=top;spacingLeft=4;spacingRight=4;overflow=hidden;rotatable=0;points=[[0,0.5],[1,0.5]];portConstraint=eastwest;" vertex="1" parent="19">
                    <mxGeometry y="78" width="100" height="26" as="geometry"/>
                </mxCell>
                <mxCell id="23" value="協力会社" style="swimlane;fontStyle=0;childLayout=stackLayout;horizontal=1;startSize=26;fillColor=none;horizontalStack=0;resizeParent=1;resizeParentMax=0;resizeLast=0;collapsible=0;marginBottom=0;swimlaneLine=1;strokeColor=default;connectable=1;allowArrows=1;" parent="1" vertex="1">
                    <mxGeometry x="340" y="60" width="110" height="52" as="geometry">
                        <mxRectangle x="390" y="120" width="80" height="26" as="alternateBounds"/>
                    </mxGeometry>
                </mxCell>
                <mxCell id="24" value="区分" style="text;strokeColor=none;fillColor=none;align=left;verticalAlign=top;spacingLeft=4;spacingRight=4;overflow=hidden;rotatable=0;points=[[0,0.5],[1,0.5]];portConstraint=eastwest;" parent="23" vertex="1">
                    <mxGeometry y="26" width="110" height="26" as="geometry"/>
                </mxCell>
                <mxCell id="35" value="&lt;ul&gt;&lt;li&gt;&lt;span&gt;取引先が協力会社になる場合がある&lt;/span&gt;&lt;br&gt;&lt;/li&gt;&lt;ul&gt;&lt;li&gt;&lt;span&gt;顧客企業と協力会社の役割を持つ&lt;/span&gt;&lt;br&gt;&lt;/li&gt;&lt;/ul&gt;&lt;li&gt;&lt;span&gt;部分集合(協力会社、顧客企業)の積集合にも要素が存在する&lt;/span&gt;&lt;br&gt;&lt;/li&gt;&lt;/ul&gt;" style="text;html=1;strokeColor=none;fillColor=none;align=left;verticalAlign=middle;whiteSpace=wrap;rounded=0;" parent="1" vertex="1">
                    <mxGeometry x="240" y="300" width="450" height="30" as="geometry"/>
                </mxCell>
                <mxCell id="38" value="顧客企業" style="swimlane;fontStyle=0;childLayout=stackLayout;horizontal=1;startSize=26;fillColor=none;horizontalStack=0;resizeParent=1;resizeParentMax=0;resizeLast=0;collapsible=0;marginBottom=0;swimlaneLine=1;strokeColor=default;connectable=1;allowArrows=1;" vertex="1" parent="1">
                    <mxGeometry x="340" y="210" width="110" height="52" as="geometry">
                        <mxRectangle x="390" y="120" width="80" height="26" as="alternateBounds"/>
                    </mxGeometry>
                </mxCell>
                <mxCell id="39" value="与信限度額" style="text;strokeColor=none;fillColor=none;align=left;verticalAlign=top;spacingLeft=4;spacingRight=4;overflow=hidden;rotatable=0;points=[[0,0.5],[1,0.5]];portConstraint=eastwest;" vertex="1" parent="38">
                    <mxGeometry y="26" width="110" height="26" as="geometry"/>
                </mxCell>
                <mxCell id="40" style="edgeStyle=none;html=1;exitX=1;exitY=0.5;exitDx=0;exitDy=0;entryX=0;entryY=0.5;entryDx=0;entryDy=0;startArrow=ERone;startFill=0;endArrow=ERzeroToMany;endFill=0;" edge="1" parent="1" source="36" target="39">
                    <mxGeometry relative="1" as="geometry"/>
                </mxCell>
                <mxCell id="41" value="取引先&lt;br&gt;&lt;br&gt;&lt;br&gt;&lt;br&gt;&lt;br&gt;&lt;br&gt;" style="ellipse;whiteSpace=wrap;html=1;" vertex="1" parent="1">
                    <mxGeometry x="520" y="80" width="260" height="130" as="geometry"/>
                </mxCell>
                <mxCell id="42" value="協力会社&amp;nbsp; &amp;nbsp; &amp;nbsp; &amp;nbsp; &amp;nbsp; &amp;nbsp;" style="ellipse;whiteSpace=wrap;html=1;fillColor=none;" vertex="1" parent="1">
                    <mxGeometry x="550" y="120" width="130" height="60" as="geometry"/>
                </mxCell>
                <mxCell id="43" value="&amp;nbsp; &amp;nbsp; &amp;nbsp; &amp;nbsp; &amp;nbsp; &amp;nbsp;顧客企業" style="ellipse;whiteSpace=wrap;html=1;fillColor=none;" vertex="1" parent="1">
                    <mxGeometry x="630" y="120" width="130" height="60" as="geometry"/>
                </mxCell>
            </root>
        </mxGraphModel>
    </diagram>
</mxfile>